# xmcd
#
# Track frame offsets:
#	150
#	14348
#	28706
#	45241
#	66527
#	82961
#	104453
#	127967
#	142773
#	156386
#	171691
#	187945
#	205580
#	225471
#	244298
#	260223
#	277163
#	301714
#	320592
#	337423
#
# Disc length: 4674 seconds
#
# Revision: 1
# Processed by: cddbd v1.4PL0 Copyright (c) Steve Scherf et al.
# Submitted via: audiograbber 1.81.03
#
DISCID=24124014
DTITLE=John Denver - The Complete Collection [CD1)
DYEAR=2001
DGENRE=Ballad
TTITLE0=Thank God I'm A country Boy
TTITLE1=Take Me Home Country Roads
TTITLE2=Leaving On A Jet Plane
TTITLE3=Rocky Mountain High
TTITLE4=Let It Be
TTITLE5=Back Home Again
TTITLE6=Sunshine On My Shoulders
TTITLE7=City Of New Orleans
TTITLE8=Annie's Song
TTITLE9=Friends With You
TTITLE10=Calypso
TTITLE11=The Night They Drove Old Dixie Down
TTITLE12=I'd Rather Be A Cowboy (Lady's Chains)
TTITLE13=Mr. Bojangles
TTITLE14=I'm Sorry
TTITLE15=Fire And Rain
TTITLE16=Sweet Surrender
TTITLE17=Fly Away
TTITLE18=Like A Sad Song
TTITLE19=Please Daddy
EXTD=Record number: BMG Danmark (in coopr with CMC) 74321-882302
EXTT0=
EXTT1=
EXTT2=
EXTT3=
EXTT4=
EXTT5=
EXTT6=
EXTT7=
EXTT8=
EXTT9=
EXTT10=
EXTT11=
EXTT12=
EXTT13=
EXTT14=
EXTT15=
EXTT16=
EXTT17=
EXTT18=
EXTT19=
PLAYORDER=
